<mxfile host="Electron" agent="Mozilla/5.0 (Macintosh; Intel Mac OS X 10_15_7) AppleWebKit/537.36 (KHTML, like Gecko) draw.io/24.7.17 Chrome/128.0.6613.36 Electron/32.0.1 Safari/537.36" version="24.7.17">
  <diagram name="Page-1" id="CmwfvS-TXwhXp_Nho_oi">
    <mxGraphModel dx="1776" dy="619" grid="1" gridSize="10" guides="1" tooltips="1" connect="1" arrows="1" fold="1" page="1" pageScale="1" pageWidth="827" pageHeight="1169" math="0" shadow="0">
      <root>
        <mxCell id="0" />
        <mxCell id="1" parent="0" />
        <mxCell id="lmbdGu3gSNc6-FD1DJ5F-1" value="Projection" style="rounded=1;whiteSpace=wrap;html=1;fillColor=#bac8d3;strokeColor=#23445d;strokeWidth=3;" vertex="1" parent="1">
          <mxGeometry x="445" y="680" width="80" height="30" as="geometry" />
        </mxCell>
        <mxCell id="lmbdGu3gSNc6-FD1DJ5F-2" value="Projection" style="rounded=1;whiteSpace=wrap;html=1;fillColor=#fad9d5;strokeColor=#ae4132;strokeWidth=3;" vertex="1" parent="1">
          <mxGeometry x="545" y="680" width="80" height="30" as="geometry" />
        </mxCell>
        <mxCell id="lmbdGu3gSNc6-FD1DJ5F-3" value="Projection" style="rounded=1;whiteSpace=wrap;html=1;fillColor=#bac8d3;strokeColor=#23445d;strokeWidth=3;" vertex="1" parent="1">
          <mxGeometry x="645" y="680" width="80" height="30" as="geometry" />
        </mxCell>
        <mxCell id="lmbdGu3gSNc6-FD1DJ5F-4" value="Projection" style="rounded=1;whiteSpace=wrap;html=1;fillColor=#fad9d5;strokeColor=#ae4132;strokeWidth=3;" vertex="1" parent="1">
          <mxGeometry x="745" y="680" width="80" height="30" as="geometry" />
        </mxCell>
        <mxCell id="lmbdGu3gSNc6-FD1DJ5F-5" style="edgeStyle=orthogonalEdgeStyle;rounded=0;orthogonalLoop=1;jettySize=auto;html=1;strokeWidth=2;" edge="1" parent="1" source="lmbdGu3gSNc6-FD1DJ5F-6">
          <mxGeometry relative="1" as="geometry">
            <mxPoint x="485" y="710" as="targetPoint" />
          </mxGeometry>
        </mxCell>
        <mxCell id="lmbdGu3gSNc6-FD1DJ5F-6" value="User &lt;i&gt;u&lt;/i&gt;&lt;div&gt;Embeddings&lt;/div&gt;" style="text;html=1;align=center;verticalAlign=middle;resizable=0;points=[];autosize=1;rounded=1;fillColor=#f5f5f5;fontColor=#333333;strokeColor=#666666;" vertex="1" parent="1">
          <mxGeometry x="440" y="730" width="90" height="40" as="geometry" />
        </mxCell>
        <mxCell id="lmbdGu3gSNc6-FD1DJ5F-7" style="edgeStyle=orthogonalEdgeStyle;rounded=0;orthogonalLoop=1;jettySize=auto;html=1;strokeWidth=2;" edge="1" parent="1" source="lmbdGu3gSNc6-FD1DJ5F-8">
          <mxGeometry relative="1" as="geometry">
            <mxPoint x="585" y="710" as="targetPoint" />
          </mxGeometry>
        </mxCell>
        <mxCell id="lmbdGu3gSNc6-FD1DJ5F-8" value="Item &lt;i&gt;i&lt;/i&gt;&lt;div&gt;Embeddings&lt;/div&gt;" style="text;html=1;align=center;verticalAlign=middle;resizable=0;points=[];autosize=1;rounded=1;fillColor=#f5f5f5;fontColor=#333333;strokeColor=#666666;" vertex="1" parent="1">
          <mxGeometry x="540" y="730" width="90" height="40" as="geometry" />
        </mxCell>
        <mxCell id="lmbdGu3gSNc6-FD1DJ5F-9" style="edgeStyle=orthogonalEdgeStyle;rounded=0;orthogonalLoop=1;jettySize=auto;html=1;strokeWidth=2;" edge="1" parent="1" source="lmbdGu3gSNc6-FD1DJ5F-10">
          <mxGeometry relative="1" as="geometry">
            <mxPoint x="685" y="710" as="targetPoint" />
          </mxGeometry>
        </mxCell>
        <mxCell id="lmbdGu3gSNc6-FD1DJ5F-10" value="User Aspects&lt;div&gt;Embeddings&lt;/div&gt;" style="text;html=1;align=center;verticalAlign=middle;resizable=0;points=[];autosize=1;rounded=1;fillColor=#f5f5f5;fontColor=#333333;strokeColor=#666666;" vertex="1" parent="1">
          <mxGeometry x="640" y="730" width="90" height="40" as="geometry" />
        </mxCell>
        <mxCell id="lmbdGu3gSNc6-FD1DJ5F-11" style="edgeStyle=orthogonalEdgeStyle;rounded=0;orthogonalLoop=1;jettySize=auto;html=1;strokeWidth=2;" edge="1" parent="1" source="lmbdGu3gSNc6-FD1DJ5F-12">
          <mxGeometry relative="1" as="geometry">
            <mxPoint x="785" y="710" as="targetPoint" />
          </mxGeometry>
        </mxCell>
        <mxCell id="lmbdGu3gSNc6-FD1DJ5F-12" value="Item Aspects&lt;div&gt;Embeddings&lt;/div&gt;" style="text;html=1;align=center;verticalAlign=middle;resizable=0;points=[];autosize=1;rounded=1;fillColor=#f5f5f5;fontColor=#333333;strokeColor=#666666;" vertex="1" parent="1">
          <mxGeometry x="740" y="730" width="90" height="40" as="geometry" />
        </mxCell>
        <mxCell id="lmbdGu3gSNc6-FD1DJ5F-13" value="&lt;span style=&quot;text-wrap: nowrap;&quot;&gt;Tokens&amp;nbsp;&lt;/span&gt;&lt;span style=&quot;text-wrap: nowrap; background-color: initial;&quot;&gt;Embeddings&lt;/span&gt;" style="rounded=1;whiteSpace=wrap;html=1;fillColor=#f5f5f5;strokeColor=#666666;strokeWidth=1;fontColor=#333333;" vertex="1" parent="1">
          <mxGeometry x="445" y="630" width="380" height="30" as="geometry" />
        </mxCell>
        <mxCell id="lmbdGu3gSNc6-FD1DJ5F-14" style="edgeStyle=orthogonalEdgeStyle;rounded=0;orthogonalLoop=1;jettySize=auto;html=1;exitX=0.5;exitY=0;exitDx=0;exitDy=0;entryX=0.101;entryY=1.019;entryDx=0;entryDy=0;entryPerimeter=0;endArrow=none;endFill=0;strokeWidth=2;" edge="1" parent="1" source="lmbdGu3gSNc6-FD1DJ5F-1" target="lmbdGu3gSNc6-FD1DJ5F-13">
          <mxGeometry relative="1" as="geometry" />
        </mxCell>
        <mxCell id="lmbdGu3gSNc6-FD1DJ5F-15" style="edgeStyle=orthogonalEdgeStyle;rounded=0;orthogonalLoop=1;jettySize=auto;html=1;exitX=0.5;exitY=0;exitDx=0;exitDy=0;entryX=0.363;entryY=1.019;entryDx=0;entryDy=0;entryPerimeter=0;endArrow=none;endFill=0;strokeWidth=2;" edge="1" parent="1" source="lmbdGu3gSNc6-FD1DJ5F-2" target="lmbdGu3gSNc6-FD1DJ5F-13">
          <mxGeometry relative="1" as="geometry" />
        </mxCell>
        <mxCell id="lmbdGu3gSNc6-FD1DJ5F-16" style="edgeStyle=orthogonalEdgeStyle;rounded=0;orthogonalLoop=1;jettySize=auto;html=1;exitX=0.5;exitY=0;exitDx=0;exitDy=0;entryX=0.628;entryY=1.019;entryDx=0;entryDy=0;entryPerimeter=0;endArrow=none;endFill=0;strokeWidth=2;" edge="1" parent="1" source="lmbdGu3gSNc6-FD1DJ5F-3" target="lmbdGu3gSNc6-FD1DJ5F-13">
          <mxGeometry relative="1" as="geometry" />
        </mxCell>
        <mxCell id="lmbdGu3gSNc6-FD1DJ5F-17" style="edgeStyle=orthogonalEdgeStyle;rounded=0;orthogonalLoop=1;jettySize=auto;html=1;exitX=0.5;exitY=0;exitDx=0;exitDy=0;entryX=0.895;entryY=1.037;entryDx=0;entryDy=0;entryPerimeter=0;endArrow=none;endFill=0;strokeWidth=2;" edge="1" parent="1" source="lmbdGu3gSNc6-FD1DJ5F-4" target="lmbdGu3gSNc6-FD1DJ5F-13">
          <mxGeometry relative="1" as="geometry" />
        </mxCell>
        <mxCell id="lmbdGu3gSNc6-FD1DJ5F-18" style="edgeStyle=orthogonalEdgeStyle;rounded=0;orthogonalLoop=1;jettySize=auto;html=1;exitX=0.5;exitY=0;exitDx=0;exitDy=0;entryX=0.5;entryY=0.876;entryDx=0;entryDy=0;entryPerimeter=0;strokeWidth=2;" edge="1" parent="1" source="lmbdGu3gSNc6-FD1DJ5F-13">
          <mxGeometry relative="1" as="geometry">
            <mxPoint x="635" y="609.54" as="targetPoint" />
          </mxGeometry>
        </mxCell>
        <mxCell id="lmbdGu3gSNc6-FD1DJ5F-19" style="edgeStyle=orthogonalEdgeStyle;rounded=0;orthogonalLoop=1;jettySize=auto;html=1;exitX=0.5;exitY=0;exitDx=0;exitDy=0;strokeWidth=2;endArrow=none;endFill=0;" edge="1" parent="1" source="lmbdGu3gSNc6-FD1DJ5F-20">
          <mxGeometry relative="1" as="geometry">
            <mxPoint x="635" y="510" as="targetPoint" />
          </mxGeometry>
        </mxCell>
        <mxCell id="lmbdGu3gSNc6-FD1DJ5F-20" value="Transformer&lt;div&gt;Encoder-Decoder (T5)&lt;/div&gt;&lt;div&gt;Decoder-Only (Llama)&lt;/div&gt;" style="rounded=1;whiteSpace=wrap;html=1;fillColor=#d5e8d4;strokeColor=#82b366;strokeWidth=3;" vertex="1" parent="1">
          <mxGeometry x="445" y="530" width="380" height="45" as="geometry" />
        </mxCell>
        <mxCell id="lmbdGu3gSNc6-FD1DJ5F-21" value="" style="shape=orEllipse;perimeter=ellipsePerimeter;whiteSpace=wrap;html=1;backgroundOutline=1;strokeWidth=1;" vertex="1" parent="1">
          <mxGeometry x="625" y="590" width="20" height="20" as="geometry" />
        </mxCell>
        <mxCell id="lmbdGu3gSNc6-FD1DJ5F-22" style="edgeStyle=orthogonalEdgeStyle;rounded=0;orthogonalLoop=1;jettySize=auto;html=1;entryX=1;entryY=0.5;entryDx=0;entryDy=0;strokeWidth=2;endArrow=none;endFill=0;" edge="1" parent="1" source="lmbdGu3gSNc6-FD1DJ5F-23" target="lmbdGu3gSNc6-FD1DJ5F-21">
          <mxGeometry relative="1" as="geometry" />
        </mxCell>
        <mxCell id="lmbdGu3gSNc6-FD1DJ5F-23" value="Positional&amp;nbsp;&lt;span style=&quot;background-color: initial;&quot;&gt;Embeddings&lt;/span&gt;" style="text;html=1;align=center;verticalAlign=middle;resizable=0;points=[];autosize=1;fillColor=#f9f7ed;strokeColor=#36393d;rounded=1;" vertex="1" parent="1">
          <mxGeometry x="675" y="585" width="150" height="30" as="geometry" />
        </mxCell>
        <mxCell id="lmbdGu3gSNc6-FD1DJ5F-24" style="edgeStyle=orthogonalEdgeStyle;rounded=0;orthogonalLoop=1;jettySize=auto;html=1;exitX=0.5;exitY=0;exitDx=0;exitDy=0;endArrow=none;endFill=0;strokeWidth=2;entryX=0.5;entryY=1;entryDx=0;entryDy=0;" edge="1" parent="1" source="lmbdGu3gSNc6-FD1DJ5F-21" target="lmbdGu3gSNc6-FD1DJ5F-20">
          <mxGeometry relative="1" as="geometry">
            <mxPoint x="635" y="580" as="targetPoint" />
          </mxGeometry>
        </mxCell>
        <mxCell id="lmbdGu3gSNc6-FD1DJ5F-25" value="(u, i) review" style="text;html=1;align=center;verticalAlign=middle;resizable=0;points=[];autosize=1;strokeColor=none;fillColor=none;" vertex="1" parent="1">
          <mxGeometry x="590" y="440" width="90" height="30" as="geometry" />
        </mxCell>
        <mxCell id="lmbdGu3gSNc6-FD1DJ5F-26" value="" style="sketch=0;outlineConnect=0;fontColor=#232F3E;gradientColor=none;fillColor=#01A88D;strokeColor=none;dashed=0;verticalLabelPosition=bottom;verticalAlign=top;align=center;html=1;fontSize=12;fontStyle=0;aspect=fixed;pointerEvents=1;shape=mxgraph.aws4.sagemaker_model;" vertex="1" parent="1">
          <mxGeometry x="795" y="540.5" width="24" height="24" as="geometry" />
        </mxCell>
        <mxCell id="lmbdGu3gSNc6-FD1DJ5F-27" style="edgeStyle=orthogonalEdgeStyle;rounded=0;orthogonalLoop=1;jettySize=auto;html=1;exitX=0.5;exitY=0;exitDx=0;exitDy=0;strokeWidth=2;" edge="1" parent="1" source="lmbdGu3gSNc6-FD1DJ5F-28">
          <mxGeometry relative="1" as="geometry">
            <mxPoint x="635.2727272727273" y="460" as="targetPoint" />
          </mxGeometry>
        </mxCell>
        <mxCell id="lmbdGu3gSNc6-FD1DJ5F-28" value="&lt;span style=&quot;text-wrap: nowrap;&quot;&gt;Review Tokens&lt;/span&gt;" style="rounded=1;whiteSpace=wrap;html=1;fillColor=#f5f5f5;strokeColor=#666666;strokeWidth=1;fontColor=#333333;" vertex="1" parent="1">
          <mxGeometry x="445" y="480" width="380" height="30" as="geometry" />
        </mxCell>
        <mxCell id="lmbdGu3gSNc6-FD1DJ5F-29" value="" style="rounded=1;whiteSpace=wrap;html=1;strokeWidth=3;fillColor=#f5f5f5;strokeColor=#000000;fontColor=#333333;movable=1;resizable=1;rotatable=1;deletable=1;editable=1;locked=0;connectable=1;container=0;" vertex="1" parent="1">
          <mxGeometry x="-36" y="630" width="440" height="110" as="geometry" />
        </mxCell>
        <mxCell id="lmbdGu3gSNc6-FD1DJ5F-30" style="edgeStyle=orthogonalEdgeStyle;rounded=0;orthogonalLoop=1;jettySize=auto;html=1;exitX=0.5;exitY=0;exitDx=0;exitDy=0;entryX=0.5;entryY=1;entryDx=0;entryDy=0;" edge="1" parent="1" source="lmbdGu3gSNc6-FD1DJ5F-33" target="lmbdGu3gSNc6-FD1DJ5F-39">
          <mxGeometry relative="1" as="geometry" />
        </mxCell>
        <mxCell id="lmbdGu3gSNc6-FD1DJ5F-31" value="" style="edgeStyle=orthogonalEdgeStyle;rounded=0;orthogonalLoop=1;jettySize=auto;html=1;fillColor=#bac8d3;strokeColor=#000000;strokeWidth=2;" edge="1" parent="1" source="lmbdGu3gSNc6-FD1DJ5F-33" target="lmbdGu3gSNc6-FD1DJ5F-39">
          <mxGeometry relative="1" as="geometry" />
        </mxCell>
        <mxCell id="lmbdGu3gSNc6-FD1DJ5F-32" style="edgeStyle=orthogonalEdgeStyle;rounded=1;orthogonalLoop=1;jettySize=auto;html=1;exitX=0.5;exitY=0;exitDx=0;exitDy=0;entryX=0;entryY=0.5;entryDx=0;entryDy=0;curved=0;strokeWidth=2;fillColor=#bac8d3;strokeColor=#000000;" edge="1" parent="1" source="lmbdGu3gSNc6-FD1DJ5F-33" target="lmbdGu3gSNc6-FD1DJ5F-43">
          <mxGeometry relative="1" as="geometry">
            <Array as="points">
              <mxPoint x="34" y="750" />
              <mxPoint x="-46" y="750" />
              <mxPoint x="-46" y="592" />
            </Array>
          </mxGeometry>
        </mxCell>
        <mxCell id="lmbdGu3gSNc6-FD1DJ5F-33" value="User&lt;div&gt;Embedding&lt;/div&gt;" style="rounded=1;whiteSpace=wrap;html=1;fillColor=#bac8d3;strokeColor=#23445d;strokeWidth=3;" vertex="1" parent="1">
          <mxGeometry x="-26" y="760" width="120" height="40" as="geometry" />
        </mxCell>
        <mxCell id="lmbdGu3gSNc6-FD1DJ5F-34" style="edgeStyle=orthogonalEdgeStyle;rounded=0;orthogonalLoop=1;jettySize=auto;html=1;exitX=0.5;exitY=0;exitDx=0;exitDy=0;entryX=0.5;entryY=1;entryDx=0;entryDy=0;fillColor=#f8cecc;strokeColor=#000000;strokeWidth=2;" edge="1" parent="1" source="lmbdGu3gSNc6-FD1DJ5F-36" target="lmbdGu3gSNc6-FD1DJ5F-53">
          <mxGeometry relative="1" as="geometry" />
        </mxCell>
        <mxCell id="lmbdGu3gSNc6-FD1DJ5F-35" style="edgeStyle=orthogonalEdgeStyle;rounded=1;orthogonalLoop=1;jettySize=auto;html=1;exitX=0.5;exitY=0;exitDx=0;exitDy=0;entryX=1;entryY=0.5;entryDx=0;entryDy=0;fillColor=#f8cecc;strokeColor=#000000;curved=0;strokeWidth=2;" edge="1" parent="1" source="lmbdGu3gSNc6-FD1DJ5F-36" target="lmbdGu3gSNc6-FD1DJ5F-45">
          <mxGeometry relative="1" as="geometry">
            <Array as="points">
              <mxPoint x="169" y="750" />
              <mxPoint x="414" y="750" />
              <mxPoint x="414" y="592" />
            </Array>
          </mxGeometry>
        </mxCell>
        <mxCell id="lmbdGu3gSNc6-FD1DJ5F-36" value="Item&lt;div&gt;Embedding&lt;/div&gt;" style="rounded=1;whiteSpace=wrap;html=1;fillColor=#f8cecc;strokeColor=#b85450;strokeWidth=3;" vertex="1" parent="1">
          <mxGeometry x="109" y="760" width="120" height="40" as="geometry" />
        </mxCell>
        <mxCell id="lmbdGu3gSNc6-FD1DJ5F-37" style="edgeStyle=orthogonalEdgeStyle;rounded=0;orthogonalLoop=1;jettySize=auto;html=1;exitX=0.5;exitY=0;exitDx=0;exitDy=0;entryX=0.5;entryY=1;entryDx=0;entryDy=0;strokeWidth=2;" edge="1" parent="1" source="lmbdGu3gSNc6-FD1DJ5F-39" target="lmbdGu3gSNc6-FD1DJ5F-43">
          <mxGeometry relative="1" as="geometry" />
        </mxCell>
        <mxCell id="lmbdGu3gSNc6-FD1DJ5F-38" style="edgeStyle=orthogonalEdgeStyle;rounded=1;orthogonalLoop=1;jettySize=auto;html=1;exitX=0.5;exitY=0;exitDx=0;exitDy=0;entryX=0.25;entryY=1;entryDx=0;entryDy=0;curved=0;strokeWidth=2;" edge="1" parent="1" source="lmbdGu3gSNc6-FD1DJ5F-39" target="lmbdGu3gSNc6-FD1DJ5F-41">
          <mxGeometry relative="1" as="geometry">
            <Array as="points">
              <mxPoint x="34" y="650" />
              <mxPoint x="254" y="650" />
              <mxPoint x="254" y="730" />
              <mxPoint x="304" y="730" />
            </Array>
          </mxGeometry>
        </mxCell>
        <mxCell id="lmbdGu3gSNc6-FD1DJ5F-39" value="User Aspect &lt;i&gt;a&lt;/i&gt;&lt;div&gt;Embedding&lt;/div&gt;" style="rounded=1;whiteSpace=wrap;html=1;fillColor=#e1d5e7;strokeColor=#9673a6;strokeWidth=3;" vertex="1" parent="1">
          <mxGeometry x="-26" y="670" width="120" height="40" as="geometry" />
        </mxCell>
        <mxCell id="lmbdGu3gSNc6-FD1DJ5F-40" style="edgeStyle=orthogonalEdgeStyle;rounded=0;orthogonalLoop=1;jettySize=auto;html=1;exitX=0.5;exitY=0;exitDx=0;exitDy=0;strokeWidth=2;" edge="1" parent="1" source="lmbdGu3gSNc6-FD1DJ5F-41">
          <mxGeometry relative="1" as="geometry">
            <mxPoint x="334" y="650" as="targetPoint" />
          </mxGeometry>
        </mxCell>
        <mxCell id="lmbdGu3gSNc6-FD1DJ5F-41" value="Aspect &lt;i&gt;a&lt;/i&gt;&lt;div&gt;Rating Prediction&lt;/div&gt;" style="rounded=1;whiteSpace=wrap;html=1;fillColor=#d5e8d4;strokeColor=#82b366;strokeWidth=3;" vertex="1" parent="1">
          <mxGeometry x="274" y="670" width="120" height="40" as="geometry" />
        </mxCell>
        <mxCell id="lmbdGu3gSNc6-FD1DJ5F-42" style="edgeStyle=orthogonalEdgeStyle;rounded=1;orthogonalLoop=1;jettySize=auto;html=1;exitX=0.5;exitY=0;exitDx=0;exitDy=0;entryX=0.25;entryY=1;entryDx=0;entryDy=0;strokeWidth=2;curved=0;" edge="1" parent="1" source="lmbdGu3gSNc6-FD1DJ5F-43" target="lmbdGu3gSNc6-FD1DJ5F-46">
          <mxGeometry relative="1" as="geometry" />
        </mxCell>
        <mxCell id="lmbdGu3gSNc6-FD1DJ5F-43" value="User&lt;div&gt;Attention&lt;/div&gt;" style="rounded=1;whiteSpace=wrap;html=1;fillColor=#bac8d3;strokeColor=#23445d;strokeWidth=3;" vertex="1" parent="1">
          <mxGeometry x="-26" y="572" width="120" height="40" as="geometry" />
        </mxCell>
        <mxCell id="lmbdGu3gSNc6-FD1DJ5F-44" style="edgeStyle=orthogonalEdgeStyle;rounded=1;orthogonalLoop=1;jettySize=auto;html=1;exitX=0.5;exitY=0;exitDx=0;exitDy=0;entryX=0.75;entryY=1;entryDx=0;entryDy=0;strokeColor=#000000;strokeWidth=2;curved=0;" edge="1" parent="1" source="lmbdGu3gSNc6-FD1DJ5F-45" target="lmbdGu3gSNc6-FD1DJ5F-46">
          <mxGeometry relative="1" as="geometry" />
        </mxCell>
        <mxCell id="lmbdGu3gSNc6-FD1DJ5F-45" value="Item&lt;div&gt;Attention&lt;/div&gt;" style="rounded=1;whiteSpace=wrap;html=1;fillColor=#f8cecc;strokeColor=#b85450;strokeWidth=3;" vertex="1" parent="1">
          <mxGeometry x="109" y="572" width="120" height="40" as="geometry" />
        </mxCell>
        <mxCell id="lmbdGu3gSNc6-FD1DJ5F-46" value="Overall&lt;div&gt;Rating Prediction&lt;/div&gt;" style="rounded=1;whiteSpace=wrap;html=1;fillColor=#d5e8d4;strokeColor=#82b366;strokeWidth=3;" vertex="1" parent="1">
          <mxGeometry x="44" y="492" width="120" height="40" as="geometry" />
        </mxCell>
        <mxCell id="lmbdGu3gSNc6-FD1DJ5F-47" style="edgeStyle=none;curved=1;rounded=0;orthogonalLoop=1;jettySize=auto;html=1;entryX=0.5;entryY=1;entryDx=0;entryDy=0;fontSize=12;startSize=8;endSize=8;fillColor=#bac8d3;strokeColor=#000000;strokeWidth=2;" edge="1" parent="1" source="lmbdGu3gSNc6-FD1DJ5F-48" target="lmbdGu3gSNc6-FD1DJ5F-33">
          <mxGeometry relative="1" as="geometry" />
        </mxCell>
        <mxCell id="lmbdGu3gSNc6-FD1DJ5F-48" value="User &lt;i&gt;u&lt;/i&gt;" style="text;html=1;align=center;verticalAlign=middle;resizable=0;points=[];autosize=1;strokeColor=none;fillColor=none;fontSize=16;" vertex="1" parent="1">
          <mxGeometry x="-1" y="820" width="70" height="30" as="geometry" />
        </mxCell>
        <mxCell id="lmbdGu3gSNc6-FD1DJ5F-49" style="edgeStyle=none;curved=1;rounded=0;orthogonalLoop=1;jettySize=auto;html=1;entryX=0.5;entryY=1;entryDx=0;entryDy=0;fontSize=12;startSize=8;endSize=8;fillColor=#f8cecc;strokeColor=#000000;strokeWidth=2;" edge="1" parent="1" source="lmbdGu3gSNc6-FD1DJ5F-50" target="lmbdGu3gSNc6-FD1DJ5F-36">
          <mxGeometry relative="1" as="geometry" />
        </mxCell>
        <mxCell id="lmbdGu3gSNc6-FD1DJ5F-50" value="Item &lt;i&gt;i&lt;/i&gt;" style="text;html=1;align=center;verticalAlign=middle;resizable=0;points=[];autosize=1;strokeColor=none;fillColor=none;fontSize=16;" vertex="1" parent="1">
          <mxGeometry x="139" y="820" width="60" height="30" as="geometry" />
        </mxCell>
        <mxCell id="lmbdGu3gSNc6-FD1DJ5F-51" style="edgeStyle=orthogonalEdgeStyle;rounded=0;orthogonalLoop=1;jettySize=auto;html=1;exitX=0.5;exitY=0;exitDx=0;exitDy=0;entryX=0.5;entryY=1;entryDx=0;entryDy=0;strokeWidth=2;" edge="1" parent="1" source="lmbdGu3gSNc6-FD1DJ5F-53" target="lmbdGu3gSNc6-FD1DJ5F-45">
          <mxGeometry relative="1" as="geometry" />
        </mxCell>
        <mxCell id="lmbdGu3gSNc6-FD1DJ5F-52" style="edgeStyle=orthogonalEdgeStyle;rounded=1;orthogonalLoop=1;jettySize=auto;html=1;exitX=0.5;exitY=0;exitDx=0;exitDy=0;entryX=0.75;entryY=1;entryDx=0;entryDy=0;strokeWidth=2;curved=0;" edge="1" parent="1" source="lmbdGu3gSNc6-FD1DJ5F-53" target="lmbdGu3gSNc6-FD1DJ5F-41">
          <mxGeometry relative="1" as="geometry">
            <Array as="points">
              <mxPoint x="169" y="650" />
              <mxPoint x="254" y="650" />
              <mxPoint x="254" y="730" />
              <mxPoint x="364" y="730" />
            </Array>
          </mxGeometry>
        </mxCell>
        <mxCell id="lmbdGu3gSNc6-FD1DJ5F-53" value="Item Aspect &lt;i&gt;a&lt;/i&gt;&lt;div&gt;Embedding&lt;/div&gt;" style="rounded=1;whiteSpace=wrap;html=1;fillColor=#e1d5e7;strokeColor=#9673a6;strokeWidth=3;" vertex="1" parent="1">
          <mxGeometry x="109" y="670" width="120" height="40" as="geometry" />
        </mxCell>
        <mxCell id="lmbdGu3gSNc6-FD1DJ5F-54" value="&lt;i&gt;a &lt;/i&gt;rating" style="text;html=1;align=center;verticalAlign=middle;resizable=0;points=[];autosize=1;strokeColor=none;fillColor=none;" vertex="1" parent="1">
          <mxGeometry x="304" y="630" width="60" height="30" as="geometry" />
        </mxCell>
        <mxCell id="lmbdGu3gSNc6-FD1DJ5F-55" value="(u, i)&amp;nbsp;&lt;span style=&quot;background-color: initial;&quot;&gt;rating&lt;/span&gt;" style="text;html=1;align=center;verticalAlign=middle;resizable=0;points=[];autosize=1;strokeColor=none;fillColor=none;" vertex="1" parent="1">
          <mxGeometry x="64" y="440" width="80" height="30" as="geometry" />
        </mxCell>
        <mxCell id="lmbdGu3gSNc6-FD1DJ5F-56" style="edgeStyle=orthogonalEdgeStyle;rounded=0;orthogonalLoop=1;jettySize=auto;html=1;exitX=0.5;exitY=0;exitDx=0;exitDy=0;entryX=0.508;entryY=1.028;entryDx=0;entryDy=0;entryPerimeter=0;strokeWidth=2;" edge="1" parent="1" source="lmbdGu3gSNc6-FD1DJ5F-46" target="lmbdGu3gSNc6-FD1DJ5F-55">
          <mxGeometry relative="1" as="geometry" />
        </mxCell>
      </root>
    </mxGraphModel>
  </diagram>
</mxfile>
